<?xml version="1.0" standalone="no"?>
<!DOCTYPE svg PUBLIC "-//W3C//DTD SVG 20010904//EN"
 "http://www.w3.org/TR/2001/REC-SVG-20010904/DTD/svg10.dtd">
<svg version="1.0" xmlns="http://www.w3.org/2000/svg"
 width="512.000000pt" height="512.000000pt" viewBox="0 0 512.000000 512.000000"
 preserveAspectRatio="xMidYMid meet">
<metadata>
Created by potrace 1.14, written by Peter Selinger 2001-2017
</metadata>
<g transform="translate(0.000000,512.000000) scale(0.100000,-0.100000)"
fill="#000000" stroke="none">
<path d="M456 5104 c-107 -26 -200 -78 -279 -157 -82 -81 -126 -157 -156 -267
-21 -74 -21 -81 -21 -2120 1 -1712 3 -2055 15 -2104 47 -198 202 -364 405
-432 53 -18 132 -19 2140 -19 2008 0 2087 1 2140 19 94 31 182 86 250 155 70
71 107 132 143 233 l22 63 3 2055 c3 2287 7 2127 -65 2272 -46 90 -153 201
-240 246 -34 18 -95 41 -135 52 -71 18 -138 19 -2118 19 -1744 -1 -2054 -3
-2104 -15z"/>
</g>
</svg>
